<svg id="fish_vector" xmlns="http://www.w3.org/2000/svg" width="400" height="400" viewBox="51.333 21.833 133.333 133.333">
  <metadata><?xpacket begin="﻿" id="W5M0MpCehiHzreSzNTczkc9d"?>
<x:xmpmeta xmlns:x="adobe:ns:meta/" x:xmptk="Adobe XMP Core 5.6-c142 79.160924, 2017/07/13-01:06:39        ">
   <rdf:RDF xmlns:rdf="http://www.w3.org/1999/02/22-rdf-syntax-ns#">
      <rdf:Description rdf:about=""/>
   </rdf:RDF>
</x:xmpmeta>
                                                                                                    
                                                                                                    
                                                                                                    
                                                                                                    
                                                                                                    
                                                                                                    
                                                                                                    
                                                                                                    
                                                                                                    
                                                                                                    
                                                                                                    
                                                                                                    
                                                                                                    
                                                                                                    
                                                                                                    
                                                                                                    
                                                                                                    
                                                                                                    
                                                                                                    
                                                                                                    
                           
<?xpacket end="w"?></metadata>
<defs>
    <style>
      .cls-1 {
        fill: #eb7842;
      }

      .cls-1, .cls-2 {
        fill-rule: evenodd;
      }

      .cls-2 {
        fill: #3288b0;
      }
    </style>
  </defs>
  <path id="fish_form_text" data-name="fish form text" class="cls-1" d="M113.017,100.677a50.778,50.778,0,0,1-5.006,7.027c-2.176,2.516-6.481,4.644-7.008,7.027-0.282,1.275,1.832,3.176,3,4.015,3.87,2.771,10.306.685,15.017,0a21.85,21.85,0,0,0,7.009-2.008,41.467,41.467,0,0,0,11.013-4.015c3.324-1.867,5.889-5.2,8.009-7.027,5.088-4.373,5.006-13.05,5.006-13.05s1.043-9.19-3-17.065a37.4,37.4,0,0,0-11.013-13.05,18.928,18.928,0,0,0-3.175,7.146,6.387,6.387,0,0,1-4.835,4.9s1.721-7.586,0-13.05c-1.176-3.735-8.009-6.023-8.009-6.023s-8.779-1.342-15.018,1c-5.756,2.164-11.013,10.038-11.013,10.038s3.53,7.595,9.181,11.5c6.428,4.443,15.818,2.644,15.848,2.554a51.121,51.121,0,0,1,8.01,0c3.841,0.3,8.009,4.015,8.009,4.015a13.3,13.3,0,0,1,3,6.023c0.69,3.229,1,12.046,1,12.046s-2.286-6.815-5.006-10.038a37.127,37.127,0,0,0-5.006-5.019,25.265,25.265,0,0,0-8.009-2.008c-3.724-.233-9.011,0-9.011,0A39.665,39.665,0,0,1,99,78.592a29.3,29.3,0,0,1-9.011-13.05S95.588,59.123,101,55.5c5.087-3.4,7.008-4.015,7.008-4.015s6.225-2.513,12.015-2.008a49.918,49.918,0,0,1,12.014,3.012,31.177,31.177,0,0,1,13.015-2.008c4.813,0.4,12.014,3.011,12.014,3.011s-4.97,3.874-6.007,8.031c-0.963,3.863,1,8.031,1,8.031a36.637,36.637,0,0,1,3,6.023c0.907,2.5,2,5.019,2,5.019a44,44,0,0,1,1,11.042,42.685,42.685,0,0,1-7.009,20.077c-8.581,12.767-23.027,12.046-23.027,12.046a22.557,22.557,0,0,1-15.018,1C104.241,122.506,102,119.75,102,119.75s-4.613-2.215-11.013,3.011c-8.183,6.683-17.02-4.015-17.02-4.015s8.2-1.942,14.017-4.015A37.228,37.228,0,0,1,95,112.723s2.888-4.382,5.006-7.027C102.691,102.338,112.917,100.549,113.017,100.677Z"/>
  <path id="mouth" class="cls-2" d="M93.7,65.517l12.744-10.84-1.97-3.238-15.739,13.6,12.5,16.637,2.608-2.718Z"/>
  <path id="eye" class="cls-2" d="M109.271,61.822a3.788,3.788,0,0,0-1.217.837,4.008,4.008,0,0,0-.823,1.243,3.849,3.849,0,0,0-.3,1.522,3.706,3.706,0,0,0,.3,1.487,3.878,3.878,0,0,0,2.04,2.045,3.877,3.877,0,0,0,3,0,3.861,3.861,0,0,0,1.229-.825,3.913,3.913,0,0,0,.822-1.22,3.707,3.707,0,0,0,.3-1.487,3.85,3.85,0,0,0-.3-1.522,4.022,4.022,0,0,0-.822-1.243A3.852,3.852,0,0,0,109.271,61.822Z"/>
  <path id="head" class="cls-2" d="M125.815,85.725a38.431,38.431,0,0,1-1.633-10.868,26.858,26.858,0,0,1,1.74-9.622A19.981,19.981,0,0,1,138.4,53.062L137.551,50A25.176,25.176,0,0,0,132.3,52.29a20.586,20.586,0,0,0-7.138,6.911,25.6,25.6,0,0,0-2.179,4.381q-3.829,9.939.361,23.078ZM146.663,58.7q3.358,11.444-.167,20.6a20.527,20.527,0,0,1-4.79,7.432,20.769,20.769,0,0,1-7.627,4.636l0.849,3.06a24.1,24.1,0,0,0,5.455-2.414,21.651,21.651,0,0,0,4.1-3.215,20.531,20.531,0,0,0,2.955-3.764,25.607,25.607,0,0,0,2.01-4.071q3.873-10.054-.317-23.194Z"/>
  <path id="body" class="cls-2" d="M148.113,114.882c7.1-5.924,11.66-13.93,11.18-23.446l-3.3.324c0.413,8.666-3.747,15.949-10.217,21.331Zm-5.526-4.236c5.6-4.644,9.221-10.936,8.9-18.442l-3.3.324c0.25,6.657-2.973,12.226-7.941,16.329Zm-21.619,10.5c5.36-3.4,8.943-7.5,10.585-11.37a20.435,20.435,0,0,1-2.8-1.036c-2.041,4.517-7.058,9.333-14.48,12.623,5.155,3.953,13.451,6.511,23.449,6.3a40.91,40.91,0,0,0,2.891-3.522C132.863,124.729,126.01,123.5,120.968,121.15ZM110.3,100.4q0.129,0.284.276,0.549c0.737,1.31-.121,2.873-3.059,5.147l-6.667,4.944c-3.313,2.351-3.9,5.06-.8,7.181-3.522-1.436-6.619-1.551-9.859.8l-4.535,3.373c-2.785,2.145-6.893,1.506-10.46-3.912q-0.654-1.038-1.241-2.141l-3.224,1.413q0.787,1.476,1.686,2.841a19.362,19.362,0,0,0,5.406,5.575,13.22,13.22,0,0,0,5.139,2.108,8.277,8.277,0,0,0,4.2-.333,9.2,9.2,0,0,0,3.224-2.059l4.009-3.865a7.91,7.91,0,0,1,1.777-1.314,4.593,4.593,0,0,1,1.942-.512,8.474,8.474,0,0,1,2.4.3c0.908,0.222,1.993.584,3.312,1.021q0.584,0.194,1.178.366l1.653-2.559q-0.537-.158-1.064-0.332a7.518,7.518,0,0,1-2.519-1.311,2.752,2.752,0,0,1-.978-1.493,2.177,2.177,0,0,1,.286-1.527,7.1,7.1,0,0,1,1.267-1.557l5.82-5.609a21.02,21.02,0,0,0,3.957-4.983c0.67-1.3.8-2.177,0.34-3.012q-0.133-.244-0.244-0.507Z"/>
</svg>
